<?xml version="1.0" encoding="UTF-8" standalone="no"?>
<!-- Created with Inkscape (http://www.inkscape.org/) -->

<svg
   xmlns:dc="http://purl.org/dc/elements/1.1/"
   xmlns:cc="http://creativecommons.org/ns#"
   xmlns:rdf="http://www.w3.org/1999/02/22-rdf-syntax-ns#"
   xmlns:svg="http://www.w3.org/2000/svg"
   xmlns="http://www.w3.org/2000/svg"
   xmlns:sodipodi="http://sodipodi.sourceforge.net/DTD/sodipodi-0.dtd"
   xmlns:inkscape="http://www.inkscape.org/namespaces/inkscape"
   width="600"
   height="240"
   id="svg2"
   version="1.1"
   inkscape:version="0.48.2 r9819"
   sodipodi:docname="monsterface.svg"
   inkscape:export-filename="/Users/ben/Dev/monsterfacegames/content/images/monsterface-hd.png"
   inkscape:export-xdpi="384"
   inkscape:export-ydpi="384">
  <defs
     id="defs4">
    <clipPath
       clipPathUnits="userSpaceOnUse"
       id="clipPath4018">
      <path
         transform="matrix(0.88085333,0,0,0.88085333,4.7658666,962.08122)"
         d="m 64,48 a 24,32 0 1 1 -48,0 24,32 0 1 1 48,0 z"
         sodipodi:ry="32"
         sodipodi:rx="24"
         sodipodi:cy="48"
         sodipodi:cx="40"
         id="path4020"
         style="fill:#ac9393;fill-opacity:1;stroke:#550000;stroke-width:3.40578842;stroke-linecap:butt;stroke-linejoin:round;stroke-miterlimit:4;stroke-opacity:1;stroke-dasharray:none"
         sodipodi:type="arc" />
    </clipPath>
  </defs>
  <sodipodi:namedview
     id="base"
     pagecolor="#ffffff"
     bordercolor="#666666"
     borderopacity="1.0"
     inkscape:pageopacity="0.0"
     inkscape:pageshadow="2"
     inkscape:zoom="5.6"
     inkscape:cx="111.18949"
     inkscape:cy="164.16683"
     inkscape:document-units="px"
     inkscape:current-layer="layer1"
     showgrid="true"
     inkscape:window-width="1276"
     inkscape:window-height="756"
     inkscape:window-x="4"
     inkscape:window-y="0"
     inkscape:window-maximized="1"
     inkscape:snap-global="true"
     showguides="true"
     inkscape:guide-bbox="true">
    <inkscape:grid
       type="xygrid"
       id="grid2985"
       empspacing="4"
       visible="true"
       enabled="true"
       snapvisiblegridlinesonly="true"
       spacingx="2px"
       spacingy="2px" />
  </sodipodi:namedview>
  <metadata
     id="metadata7">
    <rdf:RDF>
      <cc:Work
         rdf:about="">
        <dc:format>image/svg+xml</dc:format>
        <dc:type
           rdf:resource="http://purl.org/dc/dcmitype/StillImage" />
        <dc:title></dc:title>
      </cc:Work>
    </rdf:RDF>
  </metadata>
  <g
     inkscape:label="Layer 1"
     inkscape:groupmode="layer"
     id="layer1"
     transform="translate(0,-812.36218)">
    <path
       inkscape:connector-curvature="0"
       id="path4201"
       style="font-size:62.70293045px;font-style:normal;font-variant:normal;font-weight:bold;font-stretch:normal;text-align:center;line-height:125%;letter-spacing:-0.39189333px;word-spacing:-7.1847229px;text-anchor:middle;fill:#676c53;fill-opacity:1;stroke:none;font-family:STIXVariants;-inkscape-font-specification:STIXVariants Bold"
       d="m 17.468092,839.32279 16.442225,0 11.408892,26.81089 11.476003,-26.81089 16.408669,0 0,50.09846 -12.214224,0 0,-36.64268 -11.543114,27.01224 -8.187557,0 -11.543114,-27.01224 0,36.64268 -12.24778,0 0,-50.09846" />
    <path
       inkscape:connector-curvature="0"
       id="path4205"
       style="font-size:62.70293045px;font-style:normal;font-variant:normal;font-weight:bold;font-stretch:normal;text-align:center;line-height:125%;letter-spacing:-0.39189333px;word-spacing:-7.1847229px;text-anchor:middle;fill:#676c53;fill-opacity:1;stroke:none;font-family:STIXVariants;-inkscape-font-specification:STIXVariants Bold"
       d="m 143.4491,839.32279 14.42888,0 18.22069,34.36089 0,-34.36089 12.24778,0 0,50.09846 -14.42891,0 -18.22067,-34.3609 0,34.3609 -12.24777,0 0,-50.09846" />
    <path
       inkscape:connector-curvature="0"
       id="path4207"
       style="font-size:62.70293045px;font-style:normal;font-variant:normal;font-weight:bold;font-stretch:normal;text-align:center;line-height:125%;letter-spacing:-0.39189333px;word-spacing:-7.1847229px;text-anchor:middle;fill:#676c53;fill-opacity:1;stroke:none;font-family:STIXVariants;-inkscape-font-specification:STIXVariants Bold"
       d="m 235.46516,840.8999 0,10.60356 c -2.75161,-1.23033 -5.43606,-2.1587 -8.05333,-2.78512 -2.61737,-0.62632 -5.08931,-0.93951 -7.41579,-0.93955 -3.08715,4e-5 -5.3689,0.42508 -6.84535,1.27511 -1.47644,0.85012 -2.21466,2.16996 -2.21465,3.95956 -1e-5,1.34226 0.49213,2.39367 1.47644,3.15423 1.00665,0.73825 2.81864,1.3758 5.436,1.91266 l 5.50312,1.10734 c 5.5702,1.11854 9.52973,2.81869 11.87867,5.10044 2.34885,2.2818 3.52329,5.5255 3.52333,9.73111 -4e-5,5.52548 -1.64428,9.64162 -4.93268,12.34844 -3.2661,2.68445 -8.26586,4.02667 -14.99932,4.02667 -3.17664,0 -6.36441,-0.302 -9.56335,-0.906 -3.19896,-0.604 -6.39792,-1.49881 -9.59687,-2.68444 l 0,-10.90556 c 3.19895,1.70017 6.28606,2.98646 9.26131,3.85889 2.99763,0.85009 5.88339,1.27513 8.65733,1.27512 2.81866,10e-6 4.97739,-0.46978 6.47623,-1.40933 1.49881,-0.93954 2.24821,-2.28177 2.24824,-4.02669 -3e-5,-1.5659 -0.51456,-2.77391 -1.54357,-3.62398 -1.00669,-0.85005 -3.03121,-1.61065 -6.07356,-2.28178 l -4.99977,-1.10734 c -5.01098,-1.07375 -8.67972,-2.78509 -11.00622,-5.134 -2.30416,-2.34886 -3.45623,-5.51426 -3.45622,-9.49623 -1e-5,-4.98856 1.61066,-8.82506 4.83199,-11.50955 3.22133,-2.68439 7.85199,-4.02662 13.89201,-4.02666 2.75152,4e-5 5.58138,0.21255 8.48955,0.63754 2.90811,0.40271 5.91694,1.01791 9.02646,1.84556" />
    <path
       inkscape:connector-curvature="0"
       id="path4209"
       style="font-size:62.70293045px;font-style:normal;font-variant:normal;font-weight:bold;font-stretch:normal;text-align:center;line-height:125%;letter-spacing:-0.39189333px;word-spacing:-7.1847229px;text-anchor:middle;fill:#676c53;fill-opacity:1;stroke:none;font-family:STIXVariants;-inkscape-font-specification:STIXVariants Bold"
       d="m 243.72653,839.32279 46.17247,0 0,9.76468 -16.61001,0 0,40.33378 -12.91889,0 0,-40.33378 -16.64357,0 0,-9.76468" />
    <path
       inkscape:connector-curvature="0"
       id="path4211"
       style="font-size:62.70293045px;font-style:normal;font-variant:normal;font-weight:bold;font-stretch:normal;text-align:center;line-height:125%;letter-spacing:-0.39189333px;word-spacing:-7.1847229px;text-anchor:middle;fill:#676c53;fill-opacity:1;stroke:none;font-family:STIXVariants;-inkscape-font-specification:STIXVariants Bold"
       d="m 296.11348,839.32279 34.86421,0 0,9.76468 -21.94532,0 0,9.32844 20.63667,0 0,9.76467 -20.63667,0 0,11.47599 22.68357,0 0,9.76468 -35.60246,0 0,-50.09846" />
    <path
       inkscape:connector-curvature="0"
       id="path4213"
       style="font-size:62.70293045px;font-style:normal;font-variant:normal;font-weight:bold;font-stretch:normal;text-align:center;line-height:125%;letter-spacing:-0.39189333px;word-spacing:-7.1847229px;text-anchor:middle;fill:#676c53;fill-opacity:1;stroke:none;font-family:STIXVariants;-inkscape-font-specification:STIXVariants Bold"
       d="m 361.01663,861.53658 c 2.7068,3e-5 4.64183,-0.5033 5.80511,-1.51 1.1856,-1.00664 1.77843,-2.66205 1.77846,-4.96623 -3e-5,-2.28175 -0.59286,-3.91479 -1.77846,-4.89911 -1.16328,-0.98425 -3.09831,-1.47639 -5.80511,-1.47644 l -5.43599,0 0,12.85178 5.43599,0 m -5.43599,8.92576 0,18.95891 -12.91888,0 0,-50.09846 19.73066,0 c 6.59924,5e-5 11.43123,1.10738 14.49601,3.32199 3.08707,2.21472 4.6306,5.71567 4.63065,10.50289 -5e-5,3.31086 -0.80537,6.02887 -2.416,8.154 -1.58833,2.12522 -3.99313,3.69116 -7.21444,4.6978 1.76722,0.40269 3.34434,1.31987 4.73134,2.75155 1.40929,1.40935 2.82981,3.55692 4.26156,6.44266 l 7.01312,14.22757 -13.7578,0 -6.10711,-12.44912 c -1.23038,-2.50546 -2.48315,-4.2168 -3.75821,-5.134 -1.25277,-0.91717 -2.93054,-1.37576 -5.03333,-1.37579 l -3.65757,0" />
    <path
       inkscape:connector-curvature="0"
       id="path4215"
       style="font-size:62.70293045px;font-style:normal;font-variant:normal;font-weight:bold;font-stretch:normal;text-align:center;line-height:125%;letter-spacing:-0.39189333px;word-spacing:-7.1847229px;text-anchor:middle;fill:#676c53;fill-opacity:1;stroke:none;font-family:STIXVariants;-inkscape-font-specification:STIXVariants Bold"
       d="m 410.70347,839.32279 34.86423,0 0,9.76468 -21.94534,0 0,9.32844 20.63668,0 0,9.76467 -20.63668,0 0,21.24067 -12.91889,0 0,-50.09846" />
    <path
       inkscape:connector-curvature="0"
       id="path4217"
       style="font-size:62.70293045px;font-style:normal;font-variant:normal;font-weight:bold;font-stretch:normal;text-align:center;line-height:125%;letter-spacing:-0.39189333px;word-spacing:-7.1847229px;text-anchor:middle;fill:#676c53;fill-opacity:1;stroke:none;font-family:STIXVariants;-inkscape-font-specification:STIXVariants Bold"
       d="m 479.73398,880.29414 -20.20043,0 -3.18778,9.12711 -12.98601,0 18.55621,-50.09846 15.40201,0 18.55623,50.09846 -12.986,0 -3.15423,-9.12711 m -16.97911,-9.2949 13.72423,0 -6.84532,-19.93201 -6.87891,19.93201" />
    <path
       inkscape:connector-curvature="0"
       id="path4219"
       style="font-size:62.70293045px;font-style:normal;font-variant:normal;font-weight:bold;font-stretch:normal;text-align:center;line-height:125%;letter-spacing:-0.39189333px;word-spacing:-7.1847229px;text-anchor:middle;fill:#676c53;fill-opacity:1;stroke:none;font-family:STIXVariants;-inkscape-font-specification:STIXVariants Bold"
       d="m 541.78492,886.66969 c -2.3713,1.23037 -4.84324,2.15874 -7.41578,2.78512 -2.57264,0.62636 -5.25708,0.93954 -8.05333,0.93954 -8.34418,0 -14.95461,-2.32651 -19.83134,-6.97956 -4.87674,-4.67539 -7.31511,-11.0062 -7.31511,-18.99245 0,-8.00854 2.43837,-14.33936 7.31511,-18.99244 4.87673,-4.67536 11.48716,-7.01306 19.83134,-7.0131 2.79625,4e-5 5.48069,0.31323 8.05333,0.93955 2.57254,0.62641 5.04448,1.55478 7.41578,2.7851 l 0,10.36868 c -2.39367,-1.63301 -4.75375,-2.82981 -7.08022,-3.59045 -2.32657,-0.76055 -4.77611,-1.14085 -7.34868,-1.14089 -4.60833,4e-5 -8.23232,1.47649 -10.87199,4.42935 -2.63973,2.95292 -3.95957,7.02431 -3.95956,12.2142 -10e-6,5.16759 1.31983,9.22781 3.95956,12.18067 2.63967,2.9529 6.26366,4.42936 10.87199,4.42935 2.57257,10e-6 5.02211,-0.3803 7.34868,-1.1409 2.32647,-0.76058 4.68655,-1.95739 7.08022,-3.59044 l 0,10.36867" />
    <path
       inkscape:connector-curvature="0"
       id="path4221"
       style="font-size:62.70293045px;font-style:normal;font-variant:normal;font-weight:bold;font-stretch:normal;text-align:center;line-height:125%;letter-spacing:-0.39189333px;word-spacing:-7.1847229px;text-anchor:middle;fill:#676c53;fill-opacity:1;stroke:none;font-family:STIXVariants;-inkscape-font-specification:STIXVariants Bold"
       d="m 552.09318,839.32279 34.86425,0 0,9.76468 -21.94534,0 0,9.32844 20.63666,0 0,9.76467 -20.63666,0 0,11.47599 22.68355,0 0,9.76468 -35.60246,0 0,-50.09846" />
    <path
       inkscape:connector-curvature="0"
       id="path4223"
       style="font-size:83.60421752999999967px;font-style:normal;font-variant:normal;font-weight:bold;font-stretch:normal;text-align:center;line-height:125%;letter-spacing:-0.39189332999999998px;word-spacing:-7.18472289999999969px;text-anchor:middle;fill:#454837;fill-opacity:1;stroke:none;font-family:STIXVariants;-inkscape-font-specification:STIXVariants Bold"
       d="m 118.34829,1013.3504 c -7.04026,3.419 -14.34937,5.9885 -21.926264,7.698 -7.578122,1.7093 -15.401062,2.5695 -23.467007,2.5695 -18.236203,0 -32.682633,-5.087 -43.340699,-15.2606 -10.658035,-10.21548 -15.98686,-24.05146 -15.98686,-41.50499 0,-17.64895 5.426655,-31.53352 16.279961,-41.65366 10.853835,-10.12004 25.716084,-15.18005 44.587259,-15.18018 7.284091,1.3e-4 14.25126,0.68453 20.9006,2.05334 6.69715,1.36913 13.0046,3.39789 18.92012,6.08684 l 0,22.66023 c -6.11151,-3.47104 -12.1979,-6.06235 -18.260289,-7.77353 -6.013518,-1.71095 -12.051939,-2.56663 -18.113364,-2.56672 -11.245053,9e-5 -19.922837,3.15348 -26.034131,9.46015 -6.062394,6.25786 -9.093552,15.22909 -9.09292,26.91353 -6.32e-4,11.58683 2.933272,20.53353 8.799875,26.84025 5.866522,6.306 14.202294,9.45884 25.006585,9.45874 2.933174,10e-5 5.646482,-0.1713 8.139863,-0.5148 2.542281,-0.3874 4.815685,-0.9725 6.820221,-1.755 l 0,-21.26903 -17.2335,0 0,-18.92019 44.00055,0 0,52.65812" />
    <path
       inkscape:connector-curvature="0"
       id="path4225"
       style="font-size:83.60421752999999967px;font-style:normal;font-variant:normal;font-weight:bold;font-stretch:normal;text-align:center;line-height:125%;letter-spacing:-0.39189332999999998px;word-spacing:-7.18472289999999969px;text-anchor:middle;fill:#454837;fill-opacity:1;stroke:none;font-family:STIXVariants;-inkscape-font-specification:STIXVariants Bold"
       d="m 208.87204,1001.5368 -44.14762,0 -6.96611,19.9492 -28.3807,0 40.55345,-109.48755 33.66141,0 40.55345,109.48755 -28.38068,0 -6.8932,-19.9492 m -37.10743,-20.31101 29.99431,0 -14.96011,-43.56034 -15.0342,43.56034" />
    <path
       inkscape:connector-curvature="0"
       id="path4227"
       style="font-size:83.60421752999999967px;font-style:normal;font-variant:normal;font-weight:bold;font-stretch:normal;text-align:center;line-height:125%;letter-spacing:-0.39189332999999998px;word-spacing:-7.18472289999999969px;text-anchor:middle;fill:#454837;fill-opacity:1;stroke:none;font-family:STIXVariants;-inkscape-font-specification:STIXVariants Bold"
       d="m 257.88854,911.99845 35.93368,0 24.93354,58.59389 25.08053,-58.59389 35.85961,0 0,109.48755 -26.69301,0 0,-80.08053 -25.22753,59.03183 -17.89334,0 -25.2264,-59.03183 0,80.08053 -26.76708,0 0,-109.48755" />
    <path
       inkscape:connector-curvature="0"
       id="path4229"
       style="font-size:83.60421752999999967px;font-style:normal;font-variant:normal;font-weight:bold;font-stretch:normal;text-align:center;line-height:125%;letter-spacing:-0.39189332999999998px;word-spacing:-7.18472289999999969px;text-anchor:middle;fill:#454837;fill-opacity:1;stroke:none;font-family:STIXVariants;-inkscape-font-specification:STIXVariants Bold"
       d="m 406.78616,911.99845 76.19426,0 0,21.34037 -47.96058,0 0,20.3867 45.10029,0 0,21.34031 -45.10029,0 0,25.07907 49.57307,0 0,21.3411 -77.80675,0 0,-109.48755" />
    <path
       inkscape:connector-curvature="0"
       id="path4231"
       style="font-size:83.60421752999999967px;font-style:normal;font-variant:normal;font-weight:bold;font-stretch:normal;text-align:center;line-height:125%;letter-spacing:-0.39189332999999998px;word-spacing:-7.18472289999999969px;text-anchor:middle;fill:#454837;fill-opacity:1;stroke:none;font-family:STIXVariants;-inkscape-font-specification:STIXVariants Bold"
       d="m 584.94309,915.44525 0,23.17348 c -6.0135,-2.68877 -11.87994,-4.71775 -17.59934,-6.08671 -5.72062,-1.36871 -11.12326,-2.0533 -16.20679,-2.05339 -6.74735,9e-5 -11.73406,0.929 -14.96012,2.78671 -3.22725,1.85801 -4.84086,4.74232 -4.84084,8.6534 -2e-5,2.93346 1.07572,5.23134 3.22723,6.89341 2.19932,1.6134 6.16042,3.00693 11.87989,4.18006 l 12.02689,2.41999 c 12.17386,2.44454 20.82652,6.16026 25.96027,11.14693 5.13366,4.98677 7.69994,12.07557 7.7,21.26665 -6e-5,12.07682 -3.59309,21.07342 -10.78022,26.98352 -7.13824,5.8688 -18.06432,8.8086 -32.78053,8.8086 -6.94221,0 -13.90832,-0.662 -20.89949,-1.986 -6.9912,-1.313 -13.98239,-3.2728 -20.97356,-5.8687 l 0,-23.83062 c 6.99117,3.716 13.73736,6.52704 20.23968,8.43452 6.5513,1.8564 12.85761,2.7843 18.92009,2.7842 6.16041,10e-5 10.87818,-1.0235 14.15331,-3.0771 3.27618,-2.05392 4.91373,-4.98842 4.91377,-8.80168 -4e-5,-3.42216 -1.12478,-6.06212 -3.37309,-7.92001 -2.20052,-1.85777 -6.62428,-3.51995 -13.27357,-4.9867 l -10.92722,-2.42005 c -10.95118,-2.34659 -18.9691,-6.08663 -24.0538,-11.22008 -5.03457,-5.13335 -7.55299,-12.05116 -7.55298,-20.75358 -10e-6,-10.90216 3.52008,-19.28675 10.56028,-25.15353 7.04017,-5.86654 17.16058,-8.79997 30.3601,-8.8001 6.01341,1.3e-4 12.1978,0.46453 18.55315,1.39334 6.35641,0.88011 12.93165,2.22457 19.72689,4.03344" />
    <path
       style="fill:#484537;stroke:#484537;stroke-width:1.31600153000000009px;stroke-linecap:butt;stroke-linejoin:miter;stroke-opacity:1"
       d="m 93.326405,847.68312 c -7.011176,-1.86684 -9.267771,-9.79086 -10.534343,-18.97616 4.951852,5.20417 10.820949,9.49924 19.341198,11.16666 z"
       id="path3144"
       inkscape:connector-curvature="0"
       sodipodi:nodetypes="cccc" />
    <path
       sodipodi:nodetypes="cccc"
       inkscape:connector-curvature="0"
       id="path3146"
       d="m 123.31435,847.68312 c 7.01118,-1.86684 9.26778,-9.79086 10.53435,-18.97616 -4.95185,5.20417 -10.82096,9.49925 -19.3412,11.16666 z"
       style="fill:#484537;stroke:#484537;stroke-width:1.31600153000000009px;stroke-linecap:butt;stroke-linejoin:miter;stroke-opacity:1" />
    <g
       id="g4113"
       transform="matrix(1.0749838,0,0,1.0749838,57.242968,-210.40108)"
       style="fill:#676c53;stroke:#676c53;stroke-width:0.90183347">
      <path
         style="fill:#676c53;fill-opacity:1;stroke:#676c53;stroke-width:3.04457331;stroke-linecap:round;stroke-linejoin:round;stroke-miterlimit:4;stroke-opacity:1"
         d="m 36.562813,997.03974 c 7.868664,0.39951 16.076947,-1.60714 23.649371,1.36904 4.077593,1.68092 6.509711,5.83442 7.257642,10.02712 1.34629,4.8299 -0.507388,10.4639 -4.865445,13.1223 -5.108372,3.5315 -11.738003,4.3046 -17.723865,3.0376 -7.496398,1.8698 -15.960408,-3.8128 -16.694797,-11.5912 -0.484606,-4.3942 1.768664,-8.46 4.045242,-12.0336 1.141585,-1.59689 2.58667,-3.00834 4.331852,-3.93126 z m 2.43327,-21.36281 c 7.230001,-0.20727 15.039184,-2.26074 21.786184,1.04629 3.560095,1.93363 5.156439,6.17004 4.858717,10.06247 0.269193,4.14883 -0.519625,8.41819 -2.856841,11.91812 -3.74584,5.97229 -11.248797,9.70469 -18.251855,7.94729 -4.188086,-0.7011 -8.235725,-2.894 -10.472198,-6.6049 -3.786065,-5.74671 -4.586031,-12.26954 -2.880571,-18.84085 1.091697,-3.2164 4.265768,-5.97089 7.816564,-5.52842 z"
         id="rect4077"
         inkscape:connector-curvature="0"
         sodipodi:nodetypes="cccccccccccccccc" />
    </g>
    <path
       style="fill:#676c53;stroke:#676c53;stroke-width:1.00627494px;stroke-linecap:butt;stroke-linejoin:miter;stroke-opacity:1"
       d="m 114.06968,860.58208 c 8.02263,-2.10358 16.17528,-6.37027 24.31273,-10.38535 -2.07446,9.20862 -13.65427,14.49962 -22.37733,17.60836 z"
       id="path4081"
       inkscape:connector-curvature="0"
       sodipodi:nodetypes="cccc" />
    <path
       sodipodi:nodetypes="cccc"
       inkscape:connector-curvature="0"
       id="path4083"
       d="m 101.48123,860.58177 c -8.022674,-2.10348 -16.175269,-6.37027 -24.312718,-10.38537 6.660927,12.40756 13.815458,15.14211 22.377326,17.60832 z"
       style="fill:#676c53;stroke:#676c53;stroke-width:1.00627482px;stroke-linecap:butt;stroke-linejoin:miter;stroke-opacity:1" />
    <path
       sodipodi:type="arc"
       style="fill:#ffffff;fill-opacity:1;stroke:#ffffff;stroke-width:2.7733078;stroke-linecap:round;stroke-linejoin:round;stroke-miterlimit:4;stroke-opacity:1;stroke-dasharray:none"
       id="path4085"
       sodipodi:cx="40"
       sodipodi:cy="33"
       sodipodi:rx="4"
       sodipodi:ry="3"
       d="m 44,33 a 4,3 0 1 1 -8,0 4,3 0 1 1 8,0 z"
       transform="matrix(1.4257723,0,0,1.4257723,42.390075,809.755)" />
    <path
       sodipodi:type="arc"
       style="fill:#782121;fill-opacity:1;stroke:#782121;stroke-width:2.70549989;stroke-linecap:round;stroke-linejoin:miter;stroke-miterlimit:4;stroke-opacity:1;stroke-dasharray:none"
       id="path4137"
       sodipodi:cx="17"
       sodipodi:cy="13"
       sodipodi:rx="1"
       sodipodi:ry="1"
       d="m 18,13 a 1,1 0 1 1 -2,0 1,1 0 1 1 2,0 z"
       transform="matrix(1.4615062,0,0,1.4615062,76.036871,839.26742)" />
    <path
       transform="matrix(1.4257723,0,0,1.4257723,61.229714,809.755)"
       d="m 44,33 a 4,3 0 1 1 -8,0 4,3 0 1 1 8,0 z"
       sodipodi:ry="3"
       sodipodi:rx="4"
       sodipodi:cy="33"
       sodipodi:cx="40"
       id="path4087"
       style="fill:#ffffff;fill-opacity:1;stroke:#ffffff;stroke-width:2.7733078;stroke-linecap:round;stroke-linejoin:round;stroke-miterlimit:4;stroke-opacity:1;stroke-dasharray:none"
       sodipodi:type="arc" />
    <path
       transform="matrix(1.4615062,0,0,1.4615062,91.9535,839.26742)"
       d="m 18,13 a 1,1 0 1 1 -2,0 1,1 0 1 1 2,0 z"
       sodipodi:ry="1"
       sodipodi:rx="1"
       sodipodi:cy="13"
       sodipodi:cx="17"
       id="path4139"
       style="fill:#782121;fill-opacity:1;stroke:#782121;stroke-width:2.70549989;stroke-linecap:round;stroke-linejoin:miter;stroke-miterlimit:4;stroke-opacity:1;stroke-dasharray:none"
       sodipodi:type="arc" />
    <path
       style="fill:#676c53;fill-opacity:1;stroke:#676c53;stroke-width:3.95410514;stroke-linecap:round;stroke-linejoin:miter;stroke-miterlimit:4;stroke-opacity:1"
       d="m 108.84086,846.575 5.59139,0.31984 7.64427,4.43345 -13.23565,7.67626 -13.235654,-7.67627 7.659564,-4.44236 z"
       id="rect4091"
       inkscape:connector-curvature="0"
       sodipodi:nodetypes="ccccccc" />
    <g
       id="g4150"
       transform="matrix(1.1789987,0,0,1.662965,52.617386,-803.05053)">
      <path
         id="path4148"
         style="fill:#ffffff;fill-opacity:1;stroke:#ffffff;stroke-width:0.77912819;stroke-linecap:round;stroke-linejoin:miter;stroke-miterlimit:4;stroke-opacity:1;stroke-dasharray:none"
         d="m 56,1012.3622 4,0 c 0.537784,-1.1182 0.287273,-2.5518 0,-4 -0.778888,1.6322 -2.503054,2.7697 -4,4 z m -16,0 -4,0 c -0.473224,-1.428 -0.365644,-2.7398 0,-4 1.459093,2.0884 2.696516,2.8449 4,4 z m -4,0 24,0"
         inkscape:connector-curvature="0" />
    </g>
  </g>
</svg>
