<?xml version="1.0" encoding="UTF-8" standalone="no"?>
<!-- Created with Inkscape (http://www.inkscape.org/) -->

<svg
   xmlns:dc="http://purl.org/dc/elements/1.1/"
   xmlns:cc="http://creativecommons.org/ns#"
   xmlns:rdf="http://www.w3.org/1999/02/22-rdf-syntax-ns#"
   xmlns:svg="http://www.w3.org/2000/svg"
   xmlns="http://www.w3.org/2000/svg"
   xmlns:xlink="http://www.w3.org/1999/xlink"
   xmlns:sodipodi="http://sodipodi.sourceforge.net/DTD/sodipodi-0.dtd"
   xmlns:inkscape="http://www.inkscape.org/namespaces/inkscape"
   id="svg2"
   version="1.1"
   inkscape:version="0.48.4 r9939"
   width="256"
   height="256"
   xml:space="preserve"
   sodipodi:docname="Adobe_Flash_8.ai"><metadata
     id="metadata8"><rdf:RDF><cc:Work
         rdf:about=""><dc:format>image/svg+xml</dc:format><dc:type
           rdf:resource="http://purl.org/dc/dcmitype/StillImage" /><dc:title></dc:title></cc:Work></rdf:RDF></metadata><defs
     id="defs6"><clipPath
       clipPathUnits="userSpaceOnUse"
       id="clipPath16"><path
         d="M 0,256 256,256 256,0 0,0 0,256 z"
         id="path18"
         inkscape:connector-curvature="0" /></clipPath><clipPath
       clipPathUnits="userSpaceOnUse"
       id="clipPath24"><path
         d="M 253,128 C 253,58.965 197.035,3 128,3 58.964,3 3,58.965 3,128 c 0,69.036 55.964,125 125,125 69.035,0 125,-55.964 125,-125"
         clip-rule="evenodd"
         id="path26"
         inkscape:connector-curvature="0" /></clipPath><radialGradient
       fx="0"
       fy="0"
       cx="0"
       cy="0"
       r="1"
       gradientUnits="userSpaceOnUse"
       gradientTransform="matrix(125,0,0,-125,128,128)"
       spreadMethod="pad"
       id="radialGradient32"><stop
         style="stop-opacity:1;stop-color:#fbb7d4"
         offset="0"
         id="stop34" /><stop
         style="stop-opacity:1;stop-color:#e6360b"
         offset="0.674157"
         id="stop36" /><stop
         style="stop-opacity:1;stop-color:#e6360b"
         offset="0.674157"
         id="stop38" /><stop
         style="stop-opacity:1;stop-color:#891600"
         offset="1"
         id="stop40" /></radialGradient><clipPath
       clipPathUnits="userSpaceOnUse"
       id="clipPath52"><path
         d="M 35.8076,246 223,246 l 0,-87.125 -187.1924,0 0,87.125 z"
         id="path54"
         inkscape:connector-curvature="0" /></clipPath><clipPath
       clipPathUnits="userSpaceOnUse"
       id="clipPath56"><path
         d="m 103.435,178 c 27,1 80.203,-15.621 94,-18 29,-5 25.425,8.291 25.425,8.291 -8.131,44.21 -46.861,77.709 -93.425,77.709 -46.959,0 -93,-43 -93.626,-78.846 -0.09,-5.167 3.626,-7.154 11.626,-7.154 15,0 29,17 56,18"
         id="path58"
         inkscape:connector-curvature="0" /></clipPath><linearGradient
       x1="0"
       y1="0"
       x2="1"
       y2="0"
       gradientUnits="userSpaceOnUse"
       gradientTransform="matrix(0,-87.124512,-87.124512,0,129.4043,246)"
       spreadMethod="pad"
       id="linearGradient60"><stop
         style="stop-opacity:1;stop-color:#ffffff"
         offset="0"
         id="stop62" /><stop
         style="stop-opacity:1;stop-color:#231f20"
         offset="1"
         id="stop64" /></linearGradient><clipPath
       clipPathUnits="userSpaceOnUse"
       id="clipPath84"><path
         d="m 39.5854,246 179.6986,0 0,-64.08 -179.6986,0 0,64.08 z"
         id="path86"
         inkscape:connector-curvature="0" /></clipPath><radialGradient
       inkscape:collect="always"
       xlink:href="#radialGradient32"
       id="radialGradient3091"
       gradientUnits="userSpaceOnUse"
       gradientTransform="matrix(125,0,0,-125,128,128)"
       spreadMethod="pad"
       cx="0"
       cy="0"
       fx="0"
       fy="0"
       r="1" /><linearGradient
       inkscape:collect="always"
       xlink:href="#linearGradient60"
       id="linearGradient3093"
       gradientUnits="userSpaceOnUse"
       gradientTransform="matrix(0,-87.124512,-87.124512,0,129.4043,246)"
       spreadMethod="pad"
       x1="0"
       y1="0"
       x2="1"
       y2="0" /></defs><sodipodi:namedview
     pagecolor="#ffffff"
     bordercolor="#666666"
     borderopacity="1"
     objecttolerance="10"
     gridtolerance="10"
     guidetolerance="10"
     inkscape:pageopacity="0"
     inkscape:pageshadow="2"
     inkscape:window-width="1920"
     inkscape:window-height="1027"
     id="namedview4"
     showgrid="false"
     inkscape:zoom="1.0429825"
     inkscape:cx="90.263119"
     inkscape:cy="205.5402"
     inkscape:window-x="0"
     inkscape:window-y="31"
     inkscape:window-maximized="1"
     inkscape:current-layer="g10" /><g
     id="g10"
     inkscape:groupmode="layer"
     inkscape:label="Adobe_Flash_8"
     transform="matrix(1.25,0,0,-1.25,0,256)"><path
       d="m 106.07134,138.67693 c -0.002,-0.003 -0.005,-0.006 -0.007,-0.009 -4.06,-5.1072 -7.508804,-10.9056 -10.251204,-17.2344 l -7.4264,-18.1152 c -0.0168,-0.0424 -0.0328,-0.0848 -0.048,-0.128 -2.364,-6.678404 -4.6064,-12.194404 -6.4848,-15.952004 -0.0144,-0.0296 -0.0288,-0.0592 -0.0424,-0.0888 -2.3464,-5.1376 -4.4784,-8.9224 -6.5176,-11.572 -2.4552,-3.0448 -5.0024,-5.1552 -7.976,-6.592 -3.2944,-1.544 -7.016,-2.3008 -11.3464,-2.3008 -1.5464,0 -2.8,-1.2536 -2.8,-2.8 l 0,-23 c 0,-1.5464 1.2536,-2.8 2.8,-2.8 17.0936,0 31.1136,6.616 41.6704,19.6632 3.106404,4.0968 5.833604,8.4904 8.393604,13.5016 0.0264,0.0504 0.0504,0.1008 0.072,0.152 0,0 4.4048,10.0664 5.5504,12.6832 l 24.5352,0 c 1.5456,0 2.8,1.2536 2.8,2.8 l 0,22.888804 c 0,1.5464 -1.2544,2.8 -2.8,2.8 l -12.9776,0 c 1.0328,2.072 2.0608,3.9312 3.1064,5.564 1.8696,2.8584 3.7032,5.0128 5.4352,6.38 0.0288,0.0232 0.0576,0.0472 0.0864,0.0712 2.1416,1.8344 4.3136,3.096 6.8352,3.9688 2.7536,0.9528 5.7208,1.416 9.0712,1.416 1.5464,0 2.8,1.2536 2.8,2.8 l 0,22.7768 c 0,1.5464 -1.2536,2.8 -2.8,2.8 -17.1888,0 -31.212,-6.6192 -41.6784,-19.6736"
       style="fill:#000000;fill-opacity:1;fill-rule:evenodd;stroke:none"
       id="path44"
       inkscape:connector-curvature="0" /></g></svg>