<?xml version="1.0" encoding="UTF-8" standalone="no"?>
<!-- Generator: Adobe Illustrator 15.0.0, SVG Export Plug-In . SVG Version: 6.00 Build 0)  -->

<svg
   xmlns:dc="http://purl.org/dc/elements/1.1/"
   xmlns:cc="http://creativecommons.org/ns#"
   xmlns:rdf="http://www.w3.org/1999/02/22-rdf-syntax-ns#"
   xmlns:svg="http://www.w3.org/2000/svg"
   xmlns="http://www.w3.org/2000/svg"
   xmlns:sodipodi="http://sodipodi.sourceforge.net/DTD/sodipodi-0.dtd"
   xmlns:inkscape="http://www.inkscape.org/namespaces/inkscape"
   version="1.1"
   id="Layer_1"
   x="0px"
   y="0px"
   width="512px"
   height="512px"
   viewBox="0 0 512 512"
   enable-background="new 0 0 512 512"
   xml:space="preserve"
   inkscape:version="0.48.2 r9819"
   sodipodi:docname="platform-amazon.svg"><metadata
   id="metadata3000"><rdf:RDF><cc:Work
       rdf:about=""><dc:format>image/svg+xml</dc:format><dc:type
         rdf:resource="http://purl.org/dc/dcmitype/StillImage" /></cc:Work></rdf:RDF></metadata><defs
   id="defs2998" /><sodipodi:namedview
   pagecolor="#ffffff"
   bordercolor="#666666"
   borderopacity="1"
   objecttolerance="10"
   gridtolerance="10"
   guidetolerance="10"
   inkscape:pageopacity="0"
   inkscape:pageshadow="2"
   inkscape:window-width="640"
   inkscape:window-height="480"
   id="namedview2996"
   showgrid="false"
   inkscape:zoom="0.4609375"
   inkscape:cx="256"
   inkscape:cy="256"
   inkscape:window-x="0"
   inkscape:window-y="0"
   inkscape:window-maximized="0"
   inkscape:current-layer="Layer_1" />
<g
   id="g2986"
   transform="translate(0,30)">
	<path
   d="m 269.739,208.265 c -30.487,0 -62.691,6.522 -62.691,42.463 0,18.209 9.43,30.547 25.622,30.547 11.859,0 22.479,-7.295 29.181,-19.158 8.306,-14.588 7.889,-28.29 7.889,-44.719 v -9.133 z"
   id="path2988"
   inkscape:connector-curvature="0"
   style="fill:none" />
	<path
   d="m 454.655,352.762 c -62.828,26.668 -131.155,39.52 -193.27,39.52 -92.101,0 -181.261,-25.24 -253.37,-67.197 -6.297,-3.693 -11,2.773 -5.753,7.521 66.818,60.352 155.136,96.637 253.242,96.637 69.97,0 151.234,-22.051 207.299,-63.375 9.281,-6.891 1.344,-17.138 -8.148,-13.106 z"
   id="path2990"
   inkscape:connector-curvature="0" />
	<path
   d="m 510.049,320.969 c -6.13,-7.559 -58.711,-14.068 -90.756,8.484 -4.956,3.443 -4.113,8.23 1.387,7.561 18.059,-2.145 58.291,-6.973 65.431,2.184 7.186,9.197 -7.978,47.035 -14.738,63.918 -2.059,5.123 2.351,7.182 6.971,3.318 30.107,-25.157 37.837,-77.862 31.705,-85.465 z"
   id="path2992"
   inkscape:connector-curvature="0" />
	<path
   d="m 269.739,174.456 c -24.437,2.787 -56.405,4.566 -79.299,14.647 -26.394,11.389 -44.96,34.698 -44.96,68.922 0,43.832 27.639,65.717 63.109,65.717 30.011,0 46.381,-7.061 69.512,-30.666 7.71,11.094 10.203,16.492 24.197,28.115 3.146,1.658 7.179,1.48 9.965,-1.01 l 0.119,0.119 c 8.423,-7.475 23.726,-20.816 32.322,-27.996 3.442,-2.848 2.849,-7.41 0.119,-11.209 -7.709,-10.678 -15.895,-19.334 -15.895,-39.086 v -65.715 c 0,-27.818 1.959,-53.382 -18.566,-72.539 -16.19,-15.537 -42.998,-20.997 -63.52,-20.997 -40.095,0 -84.874,14.948 -94.307,64.532 -0.948,5.277 2.847,8.064 6.288,8.837 l 40.926,4.39 c 3.795,-0.18 6.583,-3.916 7.296,-7.711 3.499,-17.082 17.853,-25.326 33.925,-25.326 8.66,0 18.503,3.203 23.667,10.974 5.869,8.659 5.1,20.522 5.1,30.546 l 0.002,5.456 0,0 z m -7.888,87.661 c -6.702,11.863 -17.322,19.158 -29.181,19.158 -16.192,0 -25.622,-12.338 -25.622,-30.547 0,-35.939 32.204,-42.464 62.691,-42.464 v 9.133 c 0,16.43 0.417,30.131 -7.888,44.72 z"
   id="path2994"
   inkscape:connector-curvature="0" />
</g>
</svg>