<?xml version="1.0" encoding="UTF-8" standalone="no"?>
<!-- Generator: Adobe Illustrator 16.0.0, SVG Export Plug-In . SVG Version: 6.00 Build 0)  -->

<svg
   xmlns:dc="http://purl.org/dc/elements/1.1/"
   xmlns:cc="http://creativecommons.org/ns#"
   xmlns:rdf="http://www.w3.org/1999/02/22-rdf-syntax-ns#"
   xmlns:svg="http://www.w3.org/2000/svg"
   xmlns="http://www.w3.org/2000/svg"
   xmlns:sodipodi="http://sodipodi.sourceforge.net/DTD/sodipodi-0.dtd"
   xmlns:inkscape="http://www.inkscape.org/namespaces/inkscape"
   version="1.1"
   id="Layer_1"
   x="0px"
   y="0px"
   width="256"
   height="256"
   viewBox="0 0 256 256"
   enable-background="new 0 0 512 512"
   xml:space="preserve"
   inkscape:version="0.48.4 r9939"
   sodipodi:docname="ios.svg"><metadata
     id="metadata9"><rdf:RDF><cc:Work
         rdf:about=""><dc:format>image/svg+xml</dc:format><dc:type
           rdf:resource="http://purl.org/dc/dcmitype/StillImage" /><dc:title></dc:title></cc:Work></rdf:RDF></metadata><defs
     id="defs7" /><sodipodi:namedview
     pagecolor="#ffffff"
     bordercolor="#666666"
     borderopacity="1"
     objecttolerance="10"
     gridtolerance="10"
     guidetolerance="10"
     inkscape:pageopacity="0"
     inkscape:pageshadow="2"
     inkscape:window-width="1920"
     inkscape:window-height="1027"
     id="namedview5"
     showgrid="false"
     inkscape:zoom="0.65186406"
     inkscape:cx="143.65861"
     inkscape:cy="194.36977"
     inkscape:window-x="0"
     inkscape:window-y="31"
     inkscape:window-maximized="1"
     inkscape:current-layer="Layer_1" /><g
     id="g3018"><path
       inkscape:connector-curvature="0"
       id="path3"
       d="M 177.83104,13.456599 H 77.643546 c -7.7065,0 -13.9545,6.248 -13.9545,13.9545 V 229.74209 c 0,7.7065 6.248,13.9545 13.9545,13.9545 H 177.83104 c 7.7065,0 13.9545,-6.248 13.9545,-13.9545 V 27.411099 c 0,-7.7065 -6.248,-13.9545 -13.9545,-13.9545 z m -92.373494,11.074 h 84.559994 c 1.6185,0 2.9305,1.312 2.9305,2.93 0,1.6185 -1.312,2.9305 -2.9305,2.9305 H 85.457546 c -1.6185,0 -2.9305,-1.3125 -2.9305,-2.9305 0,-1.618 1.312,-2.93 2.9305,-2.93 z M 127.73704,233.61109 c -4.638,0 -8.3975,-3.7605 -8.3975,-8.398 0,-4.637 3.7595,-8.3975 8.3975,-8.3975 4.6375,0 8.398,3.7605 8.398,8.3975 0,4.638 -3.76,8.398 -8.398,8.398 z m 56.095,-29.912 H 71.642546 V 43.178599 H 183.83204 V 203.69909 z" /><g
       transform="matrix(0.20492057,0.35493287,-0.35493287,0.20492057,87.787713,31.124379)"
       id="g3220"><g
         transform="translate(-23.905887,-45.690211)"
         id="g3224"><path
           inkscape:connector-curvature="0"
           sodipodi:nodetypes="csssc"
           transform="matrix(0.371753,-0.6438951,0.6438951,0.371753,-192.73421,99.542764)"
           id="path2446"
           d="m 388.21429,343.39286 c -39.46429,3.125 -49.26172,43.53645 -47.5,53.03571 0.12482,0.67306 -0.0888,0.50283 0.61625,0.48041 32.79068,-1.04268 49.93582,-36.32106 46.99997,-52.9339 -0.0997,-0.56395 -0.10069,-0.58998 -0.11622,-0.58222 z"
           style="fill:#000000;fill-opacity:1;fill-rule:evenodd;stroke:#000000;stroke-width:3.77547932px;stroke-linecap:butt;stroke-linejoin:miter;stroke-opacity:1" /><path
           inkscape:connector-curvature="0"
           sodipodi:nodetypes="csccsssssc"
           transform="matrix(0.371753,-0.6438951,0.6438951,0.371753,-192.73421,99.542764)"
           id="path3218"
           d="m 331.45311,405.37391 c 12.33447,5.9633 16.64504,3.53531 26.52043,-0.86329 22.25494,-9.91256 56.27794,-10.24504 72.03834,17.58071 -32.60666,22.21223 -33.7757,68.47543 4.7544,92.42902 -7.68233,35.06246 -26.16358,49.09947 -33.36977,56.88266 -6.7808,7.32375 -27.86575,7.18957 -35.68209,1.72653 -8.28123,-5.78797 -30.50918,-5.48351 -38.15014,0.2139 -9.59353,7.15333 -26.05126,4.57524 -28.83303,2.68254 -58.67984,-39.92554 -80.57108,-164.35965 2.71777,-177.6096 14.35741,-2.28404 30.15812,6.76219 30.15812,6.76219"
           style="fill:#000000;fill-opacity:1;fill-rule:evenodd;stroke:#000000;stroke-width:3.77547932px;stroke-linecap:butt;stroke-linejoin:miter;stroke-opacity:1" /></g></g></g></svg>