<?xml version="1.0" encoding="UTF-8" standalone="no"?>
<!-- Generator: Adobe Illustrator 13.0.0, SVG Export Plug-In . SVG Version: 6.00 Build 14948)  -->

<svg
   xmlns:dc="http://purl.org/dc/elements/1.1/"
   xmlns:cc="http://creativecommons.org/ns#"
   xmlns:rdf="http://www.w3.org/1999/02/22-rdf-syntax-ns#"
   xmlns:svg="http://www.w3.org/2000/svg"
   xmlns="http://www.w3.org/2000/svg"
   xmlns:sodipodi="http://sodipodi.sourceforge.net/DTD/sodipodi-0.dtd"
   xmlns:inkscape="http://www.inkscape.org/namespaces/inkscape"
   version="1.1"
   id="Layer_1"
   x="0px"
   y="0px"
   width="256"
   height="256"
   viewBox="0 0 256 256"
   enable-background="new 0 0 500 500"
   xml:space="preserve"
   inkscape:version="0.48.4 r9939"
   sodipodi:docname="android.svg"><metadata
     id="metadata23"><rdf:RDF><cc:Work
         rdf:about=""><dc:format>image/svg+xml</dc:format><dc:type
           rdf:resource="http://purl.org/dc/dcmitype/StillImage" /><dc:title></dc:title></cc:Work></rdf:RDF></metadata><defs
     id="defs21" /><sodipodi:namedview
     pagecolor="#ffffff"
     bordercolor="#666666"
     borderopacity="1"
     objecttolerance="10"
     gridtolerance="10"
     guidetolerance="10"
     inkscape:pageopacity="0"
     inkscape:pageshadow="2"
     inkscape:window-width="1920"
     inkscape:window-height="1027"
     id="namedview19"
     showgrid="false"
     inkscape:zoom="0.944"
     inkscape:cx="141.53261"
     inkscape:cy="19.637047"
     inkscape:window-x="0"
     inkscape:window-y="31"
     inkscape:window-maximized="1"
     inkscape:current-layer="Layer_1" /><g
     id="max_width__x2F__height"
     display="none"
     style="display:none"
     transform="translate(0,-244)"><path
       display="inline"
       d="M 499.001,1 V 499 H 1 V 1 h 498.001 m 1,-1 H 0 V 500 H 500.001 V 0 l 0,0 z"
       id="path4"
       inkscape:connector-curvature="0"
       style="display:inline" /></g><g
     id="g3027"><path
       inkscape:connector-curvature="0"
       id="path7"
       d="m 92.375,30.9375 c -0.351147,-0.0144 -0.699712,0.07504 -1,0.28125 -0.800768,0.551424 -0.956614,1.733096 -0.34375,2.625 L 101.375,48.8125 C 84.95874,56.449492 73.43563,70.96929 71.96875,87.90625 l 111.78125,0 C 182.28824,70.96929 170.75898,56.449492 154.34375,48.8125 L 164.6875,33.84375 c 0.61286,-0.89088 0.45753,-2.07204 -0.34375,-2.625 -0.80025,-0.549888 -1.95425,-0.266904 -2.5625,0.625 l -10.71875,15.5625 c -7.06919,-2.784768 -14.94483,-4.34375 -23.21875,-4.34375 -8.27392,0 -16.11882,1.557446 -23.1875,4.34375 L 93.9375,31.84375 C 93.55318,31.28695 92.960245,30.9615 92.375,30.9375 z M 104.5,60.09375 c 3.41402,0 6.1875,2.770924 6.1875,6.1875 5.1e-4,3.415552 -2.77348,6.15625 -6.1875,6.15625 -3.41657,0 -6.1875,-2.740186 -6.1875,-6.15625 0,-3.415552 2.76939,-6.1875 6.1875,-6.1875 z m 46.71875,0 c 3.4176,0 6.15625,2.771948 6.15625,6.1875 0,3.415552 -2.73967,6.15625 -6.15625,6.15625 -3.41401,0 -6.1875,-2.740186 -6.1875,-6.15625 0,-3.416576 2.77349,-6.1875 6.1875,-6.1875 z"
       style="fill:#000000" /><path
       d="m 64.789006,158.54856 c 0,6.8864 -5.582848,12.46925 -12.46976,12.46925 l 0,0 c -6.8864,0 -12.469248,-5.58285 -12.469248,-12.46925 v -50.43609 c 0,-6.8864 5.582848,-12.469252 12.469248,-12.469252 l 0,0 c 6.886912,0 12.46976,5.582852 12.46976,12.469252 v 50.43609 z"
       id="path13"
       inkscape:connector-curvature="0"
       style="fill:#000000" /><path
       d="m 71.963662,96.028754 v 91.092476 c 0,5.4098 4.385792,9.7961 9.79712,9.7961 h 11.588096 v 28.02893 c 0,6.88691 5.582336,12.46925 12.469252,12.46925 6.88691,0 12.46976,-5.58234 12.46976,-12.46925 v -28.02893 h 19.13395 v 28.02893 c 0,6.88691 5.58182,12.46925 12.46925,12.46925 6.88742,0 12.46924,-5.58234 12.46924,-12.46925 v -28.02893 h 11.5881 c 5.41133,0 9.79814,-4.38374 9.79814,-9.7961 V 96.028754 H 71.963662 z"
       id="path15"
       inkscape:connector-curvature="0"
       style="fill:#000000" /><path
       d="m 190.92072,158.54856 c 0,6.8864 5.58233,12.46925 12.46925,12.46925 l 0,0 c 6.8864,0 12.46924,-5.58285 12.46924,-12.46925 v -50.43609 c 0,-6.8864 -5.58284,-12.469252 -12.46924,-12.469252 l 0,0 c -6.88692,0 -12.46925,5.582852 -12.46925,12.469252 v 50.43609 z"
       id="path17"
       inkscape:connector-curvature="0"
       style="fill:#000000" /></g></svg>